<svg xmlns="http://www.w3.org/2000/svg" width="45.634" height="32.284" viewBox="0 0 45.634 32.284">
  <path id="behance" d="M13.156,0a10.211,10.211,0,0,1,3.7.461,11.075,11.075,0,0,1,2.878,1.153,4.893,4.893,0,0,1,1.85,2.306A9.72,9.72,0,0,1,22.2,7.61a5.783,5.783,0,0,1-1.028,3.92A7.131,7.131,0,0,1,18.295,14.3a6.787,6.787,0,0,1,3.906,3,9.579,9.579,0,0,1,1.233,5.073,8.7,8.7,0,0,1-.822,4.151,5.677,5.677,0,0,1-2.261,2.767A15.087,15.087,0,0,1,17.061,30.9a20.294,20.294,0,0,1-3.7.461H0V0Zm-.822,12.683a3.522,3.522,0,0,0,2.672-.922,3.661,3.661,0,0,0,1.028-2.767,5.006,5.006,0,0,0-.206-1.845A4.01,4.01,0,0,0,15.006,6a2.738,2.738,0,0,0-1.439-.461h-7.4v7.379C6.167,12.683,12.334,12.683,12.334,12.683Zm.411,13.375a3.6,3.6,0,0,0,1.644-.231,2.105,2.105,0,0,0,1.439-.692c.411-.231.617-.692,1.028-1.153a5.07,5.07,0,0,0,.411-2.075,4.294,4.294,0,0,0-1.233-3.459A4.86,4.86,0,0,0,12.745,17.3H6.167v8.763Zm19.528,0a4.7,4.7,0,0,0,3.7,1.384,4.354,4.354,0,0,0,2.878-.922,4.246,4.246,0,0,0,1.439-2.075h4.933a11.8,11.8,0,0,1-3.7,6,9.88,9.88,0,0,1-5.961,1.845,8.646,8.646,0,0,1-4.317-.922,8.648,8.648,0,0,1-3.289-2.537,10.285,10.285,0,0,1-2.056-3.69,17.066,17.066,0,0,1-.617-4.843A19.554,19.554,0,0,1,25.9,15.45a17.086,17.086,0,0,1,2.467-3.92,13.327,13.327,0,0,1,3.289-2.537,12.165,12.165,0,0,1,4.317-.922A7.475,7.475,0,0,1,40.5,9.224a8.016,8.016,0,0,1,3.083,3,13.59,13.59,0,0,1,1.85,4.381,40.018,40.018,0,0,1,.206,5.073h-14.8a7.269,7.269,0,0,0,1.439,4.381Zm6.372-11.991a4.32,4.32,0,0,0-3.083-1.153,6.681,6.681,0,0,0-2.261.461,3.731,3.731,0,0,0-1.439,1.153,2.22,2.22,0,0,0-.617,1.614c0,.461-.206.922-.206,1.384h9.045A6.4,6.4,0,0,0,38.645,14.067ZM29.806,2.075H41.112v3H29.806Z"/>
</svg>
